<?xml version="1.0" standalone="no"?><!DOCTYPE svg PUBLIC "-//W3C//DTD SVG 1.1//EN" "http://www.w3.org/Graphics/SVG/1.1/DTD/svg11.dtd"><svg t="1681892025922" class="icon" viewBox="0 0 1024 1024" version="1.1" xmlns="http://www.w3.org/2000/svg" p-id="1203" xmlns:xlink="http://www.w3.org/1999/xlink" width="1024" height="1024"><path d="M468.014545 159.511273h88.808728v553.890909h-88.808728z" fill="#366CD9" p-id="1204"></path><path d="M672.395636 957.626182H351.557818l51.758546-232.727273a42.728727 42.728727 0 0 1 47.429818-37.236364h123.345454a43.287273 43.287273 0 0 1 47.429819 37.236364z" fill="#366CD9" p-id="1205"></path><path d="M519.586909 183.668364l123.345455-62.976-12.939637-26.717091-118.132363 60.509091-118.132364-60.509091-12.939636 26.717091 123.345454 62.976 3.444364 6.888727 4.328727-2.606546 4.328727 2.606546z m334.615273-94.021819v-12.055272a31.325091 31.325091 0 0 0-31.045818-30.161455L792.948364 46.545455c-0.884364 0-64.698182 2.606545-70.702546 2.606545-24.994909 1.722182-80.197818 18.106182-80.197818 39.656727h212.154182z" fill="#366CD9" p-id="1206"></path><path d="M776.564364 109.521455a42.263273 42.263273 0 0 0 38.818909 26.71709 41.378909 41.378909 0 0 0 38.818909-26.71709z" fill="#8DA6D9" p-id="1207"></path><path d="M169.797818 89.646545v-12.055272a31.325091 31.325091 0 0 1 31.045818-30.161455L231.005091 46.545455c0.884364 0 64.651636 2.606545 70.702545 2.606545 24.994909 1.722182 80.151273 18.106182 80.151273 39.656727H169.797818z" fill="#366CD9" p-id="1208"></path><path d="M247.435636 109.521455a41.518545 41.518545 0 0 1-77.637818 0z" fill="#8DA6D9" p-id="1209"></path><path d="M381.952 93.975273l-5.166545 11.217454H169.797818v-11.217454z" fill="#8DA6D9" p-id="1210"></path><path d="M512 159.511273h43.985455v553.890909H512z" fill="#366CD9" p-id="1211"></path><path d="M511.953455 957.486545h160.395636l-51.758546-232.727272a42.728727 42.728727 0 0 0-47.429818-37.236364h-61.207272z m118.132363-863.650909l-118.132363 60.462546v33.605818l4.328727 2.606545 3.444363-6.888727 123.345455-62.929454z" fill="#366CD9" p-id="1212"></path><path d="M293.096727 925.696h437.527273V977.454545h-437.527273z" fill="#366CD9" p-id="1213"></path><path d="M511.906909 925.696h219.042909V977.454545h-219.042909z" fill="#366CD9" p-id="1214"></path><path d="M642.141091 93.975273l5.166545 11.217454h206.848v-11.217454z" fill="#8DA6D9" p-id="1215"></path></svg>